<?xml version="1.0" standalone="no"?>
<svg xmlns:xlink="http://www.w3.org/1999/xlink" id="wave" style="transform:rotate(0deg); transition: 0.3s" viewBox="0 0 1440 170" version="1.1" xmlns="http://www.w3.org/2000/svg"><defs><linearGradient id="sw-gradient-0" x1="0" x2="0" y1="1" y2="0"><stop stop-color="rgba(26, 106, 247, 1)" offset="0%"/><stop stop-color="rgba(26, 106, 247, 1)" offset="100%"/></linearGradient></defs><path style="transform:translate(0, 0px); opacity:1" fill="url(#sw-gradient-0)" d="M0,102L40,87.8C80,74,160,45,240,45.3C320,45,400,74,480,90.7C560,108,640,113,720,102C800,91,880,62,960,45.3C1040,28,1120,23,1200,42.5C1280,62,1360,108,1440,124.7C1520,142,1600,130,1680,130.3C1760,130,1840,142,1920,121.8C2000,102,2080,51,2160,45.3C2240,40,2320,79,2400,82.2C2480,85,2560,51,2640,39.7C2720,28,2800,40,2880,39.7C2960,40,3040,28,3120,25.5C3200,23,3280,28,3360,28.3C3440,28,3520,23,3600,39.7C3680,57,3760,96,3840,107.7C3920,119,4000,102,4080,79.3C4160,57,4240,28,4320,14.2C4400,0,4480,0,4560,19.8C4640,40,4720,79,4800,99.2C4880,119,4960,119,5040,107.7C5120,96,5200,74,5280,65.2C5360,57,5440,62,5520,73.7C5600,85,5680,102,5720,110.5L5760,119L5760,170L5720,170C5680,170,5600,170,5520,170C5440,170,5360,170,5280,170C5200,170,5120,170,5040,170C4960,170,4880,170,4800,170C4720,170,4640,170,4560,170C4480,170,4400,170,4320,170C4240,170,4160,170,4080,170C4000,170,3920,170,3840,170C3760,170,3680,170,3600,170C3520,170,3440,170,3360,170C3280,170,3200,170,3120,170C3040,170,2960,170,2880,170C2800,170,2720,170,2640,170C2560,170,2480,170,2400,170C2320,170,2240,170,2160,170C2080,170,2000,170,1920,170C1840,170,1760,170,1680,170C1600,170,1520,170,1440,170C1360,170,1280,170,1200,170C1120,170,1040,170,960,170C880,170,800,170,720,170C640,170,560,170,480,170C400,170,320,170,240,170C160,170,80,170,40,170L0,170Z"/></svg>